<svg xmlns="http://www.w3.org/2000/svg" viewBox="0 0 50 50"><path fill="#FFF" d="M15.8 23.5h2.8c.8 0 1.5.3 2 .8s.8 1.3.8 2v.7c0 .8-.3 1.5-.8 2s-1.3.8-2 .8h-1.4v2.8h-1.4v-9.1zm14.9 5.7v3.6h-1.4v-9.3h5V25h-3.6v2.8h2.8v1.4h-2.8zm-2.1-18.5l9.3 9.3v16.4c0 .8-.3 1.5-.8 2s-1.3.8-2 .8H15c-1.6 0-2.8-1.3-2.8-2.8V13.6c0-1.6 1.3-2.8 2.8-2.8h13.6zm0 9.3h7.3l-7.2-7.2-.1 7.2zm7.8 16.4v-15h-7.8c-.8 0-1.4-.6-1.4-1.4v-7.8H15c-.8 0-1.4.6-1.4 1.4v22.8c0 .8.6 1.4 1.4 1.4h20c.8 0 1.4-.6 1.4-1.4zM22.2 23.5h2.1c2 0 3.6 1.6 3.6 3.6v2.1c0 2-1.6 3.6-3.6 3.6h-2.1v-9.3zm1.4 7.9h.7c1.2 0 2.1-1 2.1-2.1v-2.1c0-1.2-1-2.1-2.1-2.1h-.7v6.3zM17.2 25v3.6h1.4c.8 0 1.4-.6 1.4-1.4v-.7c0-.4-.2-.7-.4-1-.3-.3-.6-.4-1-.4h-1.4zm0 0"/></svg>