<?xml version="1.0" encoding="utf-8"?>
<!-- Generator: Adobe Illustrator 18.0.0, SVG Export Plug-In . SVG Version: 6.00 Build 0)  -->
<!DOCTYPE svg PUBLIC "-//W3C//DTD SVG 1.1//EN" "http://www.w3.org/Graphics/SVG/1.1/DTD/svg11.dtd">
<svg version="1.1" id="图层_1" xmlns="http://www.w3.org/2000/svg" xmlns:xlink="http://www.w3.org/1999/xlink" x="0px" y="0px"
	 viewBox="0 0 50 50" enable-background="new 0 0 50 50" xml:space="preserve">
<g>
	<g>
		<path fill="#FFFFFF" d="M15.8,23.5h2.8c0.8,0,1.5,0.3,2,0.8c0.5,0.5,0.8,1.3,0.8,2v0.7c0,0.8-0.3,1.5-0.8,2
			c-0.5,0.5-1.3,0.8-2,0.8h-1.4v2.8h-1.4V23.5z M30.7,29.2v3.6h-1.4v-9.3h5V25h-3.6v2.8h2.8v1.4H30.7z M28.6,10.7l9.3,9.3v16.4
			c0,0.8-0.3,1.5-0.8,2c-0.5,0.5-1.3,0.8-2,0.8H15c-1.6,0-2.8-1.3-2.8-2.8V13.6c0-1.6,1.3-2.8,2.8-2.8H28.6z M28.6,20h7.3l-7.2-7.2
			L28.6,20z M36.4,36.4V21.4h-7.8c-0.8,0-1.4-0.6-1.4-1.4v-7.8H15c-0.8,0-1.4,0.6-1.4,1.4v22.8c0,0.8,0.6,1.4,1.4,1.4H35
			C35.8,37.8,36.4,37.2,36.4,36.4L36.4,36.4z M22.2,23.5h2.1c2,0,3.6,1.6,3.6,3.6v2.1c0,2-1.6,3.6-3.6,3.6h-2.1V23.5z M23.6,31.4
			h0.7c1.2,0,2.1-1,2.1-2.1v-2.1c0-1.2-1-2.1-2.1-2.1h-0.7V31.4z M17.2,25v3.6h1.4c0.8,0,1.4-0.6,1.4-1.4v-0.7c0-0.4-0.2-0.7-0.4-1
			c-0.3-0.3-0.6-0.4-1-0.4H17.2z M17.2,25"/>
	</g>
</g>
</svg>
